<?xml version="1.0" encoding="iso-8859-1"?>
<!-- Generator: Adobe Illustrator 19.0.0, SVG Export Plug-In . SVG Version: 6.00 Build 0)  -->
<svg version="1.1" id="Layer_1" xmlns="http://www.w3.org/2000/svg" xmlns:xlink="http://www.w3.org/1999/xlink" x="0px" y="0px"
	 viewBox="0 0 512 512" style="enable-background:new 0 0 512 512;" xml:space="preserve">
<path style="fill:#F23E6D;" d="M333.977,261.863c-27.031-11.196-56.791-5.804-77.977,11.482
	c-21.186-17.286-50.945-22.678-77.977-11.482c-39.175,16.226-57.778,61.138-41.552,100.313l47.117,113.75
	c9.549,23.054,35.979,34.002,59.034,24.452c5.076-2.102,9.565-5.025,13.377-8.549c3.813,3.524,8.301,6.447,13.377,8.549
	c23.054,9.549,49.484-1.399,59.034-24.452l47.117-113.75C391.755,323.001,373.152,278.089,333.977,261.863z"/>
<g>
	<circle style="fill:#3E0412;" cx="222.002" cy="442.793" r="8.17"/>
	<circle style="fill:#3E0412;" cx="329.849" cy="346.929" r="8.17"/>
	<circle style="fill:#3E0412;" cx="298.257" cy="319.815" r="8.17"/>
	<path style="fill:#3E0412;" d="M383.076,300.287c-8.683-20.963-25.01-37.29-45.973-45.973c-10.388-4.303-21.312-6.485-32.47-6.485
		c-14.158,0-28.092,3.582-40.463,10.265v-28.325c0-4.512-3.658-8.17-8.17-8.17c-4.512,0-8.17,3.658-8.17,8.17v28.325
		c-12.371-6.683-26.305-10.265-40.463-10.265c-11.157,0-22.081,2.182-32.47,6.485c-20.963,8.683-37.29,25.01-45.973,45.973
		c-8.683,20.963-8.683,44.053,0,65.015l47.118,113.75c8.29,20.015,27.646,32.948,49.309,32.948c7.011,0,13.874-1.37,20.399-4.073
		c3.637-1.507,7.067-3.388,10.251-5.622c3.184,2.234,6.612,4.116,10.251,5.622c6.524,2.703,13.388,4.073,20.399,4.073
		c21.663,0,41.019-12.933,49.309-32.948l47.116-113.75C391.759,344.34,391.76,321.249,383.076,300.287z M367.98,359.049
		l-47.116,113.75c-5.753,13.887-19.181,22.86-34.212,22.86c-4.855,0-9.615-0.952-14.146-2.829c-4.068-1.684-7.755-4.04-10.959-7.001
		c-1.565-1.447-3.556-2.17-5.545-2.17c-1.989,0-3.981,0.723-5.545,2.17c-3.204,2.961-6.89,5.316-10.959,7.001
		c-4.533,1.878-9.292,2.829-14.146,2.829c-15.031,0-28.46-8.973-34.212-22.86l-47.116-113.75c-7.013-16.931-7.013-35.579,0-52.509
		c7.013-16.931,20.199-30.116,37.13-37.129c8.396-3.477,17.216-5.241,26.215-5.241c15.777,0,31.215,5.507,43.469,15.504
		c0.371,0.297,0.742,0.547,1.131,0.769c0.026,0.015,0.051,0.033,0.077,0.047c0.367,0.204,0.754,0.374,1.154,0.52
		c0.059,0.022,0.117,0.045,0.175,0.064c0.381,0.13,0.776,0.232,1.18,0.304c0.068,0.012,0.136,0.021,0.204,0.032
		c0.406,0.062,0.82,0.105,1.245,0.105c0.425,0,0.838-0.042,1.245-0.105c0.069-0.011,0.136-0.019,0.204-0.032
		c0.405-0.073,0.798-0.174,1.18-0.304c0.059-0.02,0.117-0.042,0.175-0.064c0.399-0.146,0.786-0.316,1.154-0.52
		c0.026-0.014,0.051-0.033,0.077-0.047c0.389-0.221,0.759-0.471,1.105-0.751c12.28-10.016,27.718-15.522,43.495-15.522
		c9,0,17.821,1.764,26.215,5.241c16.931,7.013,30.116,20.199,37.13,37.129S374.993,342.118,367.98,359.049z"/>
	<path style="fill:#3E0412;" d="M130.61,259.727c4.512,0,8.17-3.658,8.17-8.17V8.17c0-4.512-3.658-8.17-8.17-8.17
		c-4.512,0-8.17,3.658-8.17,8.17v243.386C122.44,256.069,126.097,259.727,130.61,259.727z"/>
	<path style="fill:#3E0412;" d="M193.305,134.359c4.512,0,8.17-3.658,8.17-8.17V8.17c0-4.512-3.658-8.17-8.17-8.17
		s-8.17,3.658-8.17,8.17v118.018C185.135,130.701,188.793,134.359,193.305,134.359z"/>
	<path style="fill:#3E0412;" d="M193.305,232.401c4.512,0,8.17-3.658,8.17-8.17v-65.362c0-4.512-3.658-8.17-8.17-8.17
		s-8.17,3.658-8.17,8.17v65.362C185.135,228.743,188.793,232.401,193.305,232.401z"/>
	<path style="fill:#3E0412;" d="M256.001,205.259c4.512,0,8.17-3.658,8.17-8.17V8.17c0-4.512-3.658-8.17-8.17-8.17
		c-4.512,0-8.17,3.658-8.17,8.17v188.918C247.831,201.601,251.489,205.259,256.001,205.259z"/>
	<path style="fill:#3E0412;" d="M318.697,232.402c4.512,0,8.17-3.658,8.17-8.17V8.17c0-4.512-3.658-8.17-8.17-8.17
		c-4.512,0-8.17,3.658-8.17,8.17v216.062C310.527,228.744,314.185,232.402,318.697,232.402z"/>
	<path style="fill:#3E0412;" d="M381.392,81.702c4.512,0,8.17-3.658,8.17-8.17V8.17c0-4.512-3.658-8.17-8.17-8.17
		c-4.512,0-8.17,3.658-8.17,8.17v65.362C373.222,78.044,376.88,81.702,381.392,81.702z"/>
	<path style="fill:#3E0412;" d="M381.392,259.727c4.512,0,8.17-3.658,8.17-8.17V106.213c0-4.512-3.658-8.17-8.17-8.17
		c-4.512,0-8.17,3.658-8.17,8.17v145.344C373.222,256.069,376.88,259.727,381.392,259.727z"/>
</g>
<g>
</g>
<g>
</g>
<g>
</g>
<g>
</g>
<g>
</g>
<g>
</g>
<g>
</g>
<g>
</g>
<g>
</g>
<g>
</g>
<g>
</g>
<g>
</g>
<g>
</g>
<g>
</g>
<g>
</g>
</svg>
