<?xml version="1.0" encoding="UTF-8" standalone="no"?>
<svg width="91px" height="91px" viewBox="0 0 91 91" version="1.1" xmlns="http://www.w3.org/2000/svg" xmlns:xlink="http://www.w3.org/1999/xlink">
    <!-- Generator: Sketch 3.8.2 (29753) - http://www.bohemiancoding.com/sketch -->
    <title>Group 96</title>
    <desc>Created with Sketch.</desc>
    <defs></defs>
    <g id="Page-1" stroke="none" stroke-width="1" fill="none" fill-rule="evenodd">
        <g id="enterprise-v1-copy-3" transform="translate(-837.000000, -1119.000000)">
            <g id="Group-62" transform="translate(220.000000, 1118.000000)">
                <g id="Group-3" transform="translate(32.000000, 0.000000)">
                    <g id="WW-Available-Copy" transform="translate(558.369835, 1.000000)">
                        <g id="Group-96" transform="translate(27.000000, 0.000000)">
                            <circle id="Oval-1221" fill="#2DDE98" cx="45" cy="45.3934426" r="45"></circle>
                            <g id="Group-91" transform="translate(24.000000, 24.000000)" stroke="#FFFFFF" stroke-width="2">
                                <path d="M24.9687883,27.1008797 C30.3991826,25.1751068 34.6301653,20.0905582 34.6301653,14 C34.6301653,6.2680135 28.3621518,0 20.6301653,0 C12.8981788,0 6.63016529,6.2680135 6.63016529,14 C6.63016529,19.9904033 10.3925212,25.1020613 15.6831382,27.1008792" id="Oval-3605"></path>
                                <path d="M40.9451865,41.0283386 L0.194683146,41.0283386 C0.194683146,41.0283386 -2.42971836,26.7211732 20.4199553,26.7211732 C43.269629,26.7211732 40.9451865,41.0283386 40.9451865,41.0283386 Z" id="Path-5461" stroke-linecap="round" stroke-linejoin="round"></path>
                                <path d="M17.0178606,0.348876953 C17.0178606,0.348876953 17.1511614,12.2160645 6.97171802,14.3010254" id="Path-5462"></path>
                                <path d="M16.9492571,0.939453125 C16.9492571,0.939453125 13.9807499,16.2912598 34.4604876,13.9487305" id="Path-5463"></path>
                                <polyline id="Path-5465" stroke-linecap="round" stroke-linejoin="round" points="17.05497 26.8939209 20.2601702 32.7945557 23.5649797 26.8950195"></polyline>
                                <path d="M33.1706926,35 L27.7483002,35" id="Path-5466" stroke-linecap="round" stroke-linejoin="round"></path>
                            </g>
                        </g>
                    </g>
                </g>
            </g>
        </g>
    </g>
</svg>