<?xml version="1.0" encoding="iso-8859-1"?>
<!-- Generator: Adobe Illustrator 19.0.0, SVG Export Plug-In . SVG Version: 6.00 Build 0)  -->
<svg version="1.1" id="Layer_1" xmlns="http://www.w3.org/2000/svg" xmlns:xlink="http://www.w3.org/1999/xlink" x="0px" y="0px"
	 viewBox="0 0 512 512" style="enable-background:new 0 0 512 512;" xml:space="preserve">
<path style="fill:#127C8D;" d="M256,8.17l-21.787,245.558L256,503.83c136.873,0,247.83-110.957,247.83-247.83S392.873,8.17,256,8.17
	z"/>
<path style="fill:#FFD15D;" d="M256,40.851l-21.787,212.878L256,471.149c118.823,0,215.149-96.326,215.149-215.149
	S374.823,40.851,256,40.851z"/>
<path style="fill:#FF9E46;" d="M256,98.699l-21.787,155.029L256,413.301c86.736,0,157.301-70.564,157.301-157.301
	S342.736,98.699,256,98.699z"/>
<path style="fill:#FF7226;" d="M256,156.548l-21.787,97.18L256,355.451c54.838,0,99.452-44.614,99.452-99.452
	S310.838,156.548,256,156.548z"/>
<path style="fill:#BD0D38;" d="M256,205.569l-21.787,48.16L256,306.431c27.852,0,50.431-22.578,50.431-50.431
	C306.431,228.148,283.852,205.569,256,205.569z"/>
<path style="fill:#4BBCD6;" d="M185.912,18.221c-22.5,6.621-43.668,16.35-63.011,28.688c0.146-0.092,0.29-0.173,0.437-0.266
	l-73.235,71.382C23.622,157.463,8.17,204.926,8.17,256c0,45.507,12.277,88.14,33.682,124.793l139.137,111.468
	c23.664,7.507,48.862,11.569,75.011,11.569V78.979L185.912,18.221z"/>
<g>
	<path style="fill:#127C8D;" d="M50.102,118.035v137.894c0,12.796,10.373,23.169,23.169,23.169s23.169-10.373,23.169-23.169V237.77
		c4.937,1.271,68.848,0,68.848,0V124.53c10.984-4.062,18.815-14.627,18.815-27.023c0-15.908-12.896-28.804-28.804-28.804h-5.08
		l-26.882-22.061C94.256,65.109,69.284,89.463,50.102,118.035z"/>
	<path style="fill:#127C8D;" d="M173.487,365.608h-24.306v-6.897c0-29.638-24.027-53.664-53.664-53.664
		c-29.638,0-53.664,24.027-53.664,53.664v22.081C72.529,433.32,121.97,473.54,180.99,492.262v-54.636
		c16.502-3.459,28.895-18.09,28.895-35.62C209.884,381.904,193.588,365.608,173.487,365.608z"/>
</g>
<path style="fill:#FFFFFF;" d="M185.917,18.237c4.889,34.337,34.396,60.742,70.083,60.742V8.17
	C231.657,8.17,208.141,11.696,185.917,18.237z"/>
<g>
	<path style="fill:#3E0412;" d="M437.019,74.981C388.667,26.628,324.38,0,256,0S123.333,26.628,74.981,74.981S0,187.62,0,256
		s26.628,132.668,74.981,181.019C123.333,485.372,187.62,512,256,512s132.667-26.628,181.019-74.981
		C485.372,388.668,512,324.38,512,256S485.372,123.333,437.019,74.981z M264.17,214.539c19.405,3.817,34.09,20.953,34.09,41.461
		c0,20.508-14.686,37.643-34.09,41.461V214.539z M264.17,314.019c28.457-3.989,50.431-28.48,50.431-58.019
		s-21.974-54.03-50.431-58.019v-32.878c46.517,4.148,83.112,43.32,83.112,90.897s-36.595,86.749-83.112,90.897V314.019z
		 M264.17,363.314c55.541-4.189,99.452-50.72,99.452-107.314s-43.911-103.126-99.452-107.314v-41.59
		C342.616,111.353,405.129,176.51,405.129,256S342.616,400.647,264.17,404.904V363.314z M16.34,256
		c0-129.413,103.11-235.181,231.489-239.505v479.01C119.451,491.181,16.34,385.413,16.34,256z M264.17,495.505v-16.349
		c50.373-1.853,98.823-20.777,137.221-53.785c3.423-2.941,3.812-8.1,0.87-11.522c-2.943-3.424-8.103-3.811-11.521-0.869
		c-35.437,30.46-80.104,47.983-126.571,49.827v-41.54c87.46-4.274,157.299-76.766,157.299-165.268S351.631,95.006,264.17,90.732
		V49.197C374.525,53.504,462.979,144.609,462.979,256c0,49.38-17.758,97.232-50,134.741c-2.941,3.422-2.552,8.58,0.87,11.522
		c1.541,1.326,3.436,1.975,5.322,1.975c2.299,0,4.584-0.965,6.2-2.844c34.789-40.473,53.948-92.107,53.948-145.394
		c0-120.403-95.782-218.837-215.149-223.154V16.495C392.549,20.819,495.66,126.587,495.66,256S392.549,491.181,264.17,495.505z"/>
	<path style="fill:#3E0412;" d="M173.487,357.438h-16.149c-0.679-33.512-28.15-60.561-61.821-60.561
		c-4.811,0-9.524,0.548-14.077,1.598V286.18c13.329-3.604,23.169-15.798,23.169-30.252v-9.553
		c12.234,0.296,33.027,0.069,52.508-0.28v2.568c0,4.512,3.657,8.17,8.17,8.17c4.513,0,8.17-3.658,8.17-8.17V129.716
		c11.449-6.481,18.814-18.788,18.814-32.208c0-20.387-16.587-36.974-36.974-36.974h-5.08c-4.513,0-8.17,3.658-8.17,8.17
		c0,4.512,3.657,8.17,8.17,8.17h5.08c11.377,0,20.634,9.256,20.634,20.634c0,8.598-5.417,16.379-13.479,19.359
		c-3.206,1.186-5.336,4.244-5.336,7.664V229.75c-27.135,0.471-54.789,0.608-58.932,0.038c-2.36-0.515-4.835,0.037-6.753,1.524
		c-1.996,1.547-3.164,3.932-3.164,6.457v18.159c0,8.27-6.728,14.998-14.998,14.998s-14.998-6.728-14.998-14.998v-62.406
		c0-4.512-3.657-8.17-8.17-8.17s-8.17,3.658-8.17,8.17v62.406c0,14.454,9.838,26.647,23.169,30.252v18.644
		c-7.26,4.106-13.71,9.714-18.942,16.636c-2.72,3.599-2.008,8.724,1.592,11.444c3.599,2.72,8.724,2.008,11.445-1.592
		c4.573-6.05,10.412-10.726,17.008-13.815c0.356-0.137,0.703-0.294,1.033-0.477c5.664-2.479,11.856-3.802,18.282-3.802
		c25.085,0,45.494,20.408,45.494,45.494v6.897c0,4.512,3.657,8.17,8.17,8.17h24.307c15.564,0,28.226,12.663,28.226,28.228
		c0,13.286-9.42,24.903-22.401,27.623c-3.784,0.793-6.495,4.13-6.495,7.996v20.034c0,4.512,3.657,8.17,8.17,8.17
		s8.17-3.658,8.17-8.17V443.73c17.08-6.436,28.894-23.036,28.894-41.724C218.054,377.431,198.061,357.438,173.487,357.438z"/>
	<path style="fill:#3E0412;" d="M227.092,63.756c-8.886-4.632-16.633-11.427-22.405-19.652c-2.59-3.692-7.687-4.586-11.381-1.995
		c-3.694,2.593-4.586,7.688-1.994,11.382c7.268,10.357,17.029,18.917,28.226,24.754c1.206,0.63,2.497,0.927,3.77,0.927
		c2.947,0,5.794-1.6,7.251-4.396C232.646,70.776,231.093,65.841,227.092,63.756z"/>
	<path style="fill:#3E0412;" d="M123.145,269.518v3.229c0,4.512,3.657,8.17,8.17,8.17c4.513,0,8.17-3.658,8.17-8.17v-3.229
		c0-4.512-3.657-8.17-8.17-8.17C126.802,261.348,123.145,265.006,123.145,269.518z"/>
</g>
<g>
</g>
<g>
</g>
<g>
</g>
<g>
</g>
<g>
</g>
<g>
</g>
<g>
</g>
<g>
</g>
<g>
</g>
<g>
</g>
<g>
</g>
<g>
</g>
<g>
</g>
<g>
</g>
<g>
</g>
</svg>
