<svg xmlns="http://www.w3.org/2000/svg" width="69" height="69" viewBox="0 0 69 69"><g fill="none"><path fill="#8994C6" d="M59.132 26.537a26.009 26.009 0 0 1 1.418 8.5c0 14.386-11.663 26.05-26.05 26.05S8.45 49.422 8.45 35.036c0-14.388 11.663-26.05 26.05-26.05 8.58 0 16.456 4.176 21.307 11.059a.75.75 0 1 0 1.227-.865C51.904 11.904 43.573 7.486 34.5 7.486c-15.215 0-27.55 12.335-27.55 27.55s12.335 27.55 27.55 27.55 27.55-12.335 27.55-27.55c0-3.095-.51-6.122-1.5-8.988a.75.75 0 1 0-1.418.489z"/><path fill="#8994C6" d="M26.568 49.449C12.058 48.026 1.75 42.837 1.75 37.179c0-2.758 2.464-5.493 7.022-7.747a.75.75 0 0 0-.665-1.345C3.093 30.567.25 33.723.25 37.18c0 6.754 10.958 12.27 26.172 13.761a.75.75 0 1 0 .146-1.492zm33.66-20.017c4.558 2.254 7.022 4.989 7.022 7.748 0 5.387-9.375 10.388-22.962 12.063a.75.75 0 1 0 .183 1.49c14.276-1.76 24.279-7.097 24.279-13.553 0-3.458-2.843-6.613-7.857-9.093a.75.75 0 0 0-.665 1.345zm-25.87 29.436c-.66 5.15-1.622 8.382-2.002 8.382.061 0 .04-.015-.046-.13-.16-.218-.337-.579-.515-1.07-.376-1.04-.737-2.594-1.066-4.59a.75.75 0 0 0-1.48.244c.769 4.672 1.628 7.046 3.107 7.046 1.688 0 2.67-3.3 3.49-9.691a.75.75 0 1 0-1.488-.19z"/><path fill="#8994C6" d="M28.514 55.016C17.318 63.202 7.798 66.269 4.461 62.931 1.843 60.313 3.137 53.8 8.043 45.436a.75.75 0 0 0-1.294-.759C1.522 53.587.109 60.701 3.4 63.992c4.104 4.104 14.226.843 26-7.765a.75.75 0 1 0-.886-1.211zm-6.556-20.784a3.002 3.002 0 1 0-6.004 0 3.002 3.002 0 0 0 6.004 0zm1.5 0a4.502 4.502 0 1 1-9.004 0 4.502 4.502 0 0 1 9.004 0zm37.628-11.256a3.002 3.002 0 1 0-6.004 0 3.002 3.002 0 0 0 6.004 0zm1.5 0a4.502 4.502 0 1 1-9.004 0 4.502 4.502 0 0 1 9.004 0zM38.842 15.74a3.002 3.002 0 1 0-6.004 0 3.002 3.002 0 0 0 6.004 0zm1.5 0a4.502 4.502 0 1 1-9.004 0 4.502 4.502 0 0 1 9.004 0zm16.143 47.43a3.002 3.002 0 1 0-6.004 0 3.002 3.002 0 0 0 6.004 0zm1.5 0a4.502 4.502 0 1 1-9.004 0 4.502 4.502 0 0 1 9.004 0z"/><path fill="#3E396B" d="M35.572 55.458a5.146 5.146 0 1 0 0-10.292 5.146 5.146 0 0 0 0 10.292zm0 1.5a6.646 6.646 0 1 1 0-13.292 6.646 6.646 0 0 1 0 13.292z"/><path fill="#3E396B" d="M35.626 50.312a.054.054 0 1 0-.108 0 .054.054 0 0 0 .108 0zm1.5 0a1.554 1.554 0 1 1-3.108 0 1.554 1.554 0 0 1 3.108 0z"/><path fill="#8994C6" d="M50.427 60.918c-2.722-1.398-5.634-3.2-8.63-5.341a.75.75 0 1 0-.872 1.22c3.053 2.183 6.026 4.022 8.817 5.455a.75.75 0 0 0 .685-1.334zm10.935-15.705c5.011 8.465 6.356 15.075 3.713 17.718-1.461 1.462-4.155 1.73-7.846.733a.75.75 0 0 0-.392 1.448c4.155 1.123 7.377.801 9.299-1.12 3.32-3.32 1.852-10.53-3.484-19.544a.75.75 0 1 0-1.29.765zm-5.504-19.231c-3.606 5.831-8.639 12.08-14.557 17.999a.75.75 0 0 0 1.06 1.06c5.998-5.997 11.104-12.336 14.773-18.27a.75.75 0 1 0-1.276-.79zm-12.374-15.68c8.028-4.566 14.23-5.698 16.767-3.161 2.026 2.025 1.734 6.413-.898 12.326a.75.75 0 0 0 1.37.61c2.86-6.423 3.19-11.396.59-13.997-3.199-3.198-10-1.957-18.57 2.918a.75.75 0 1 0 .741 1.304zm-8.282 9.235c.278 4.602.424 9.694.424 14.963 0 2.412-.03 4.794-.091 7.117a.75.75 0 0 0 1.5.04c.06-2.337.091-4.732.091-7.157 0-5.298-.147-10.42-.426-15.053a.75.75 0 1 0-1.498.09zM30.561 8.624c.628-4.266 1.491-6.874 1.795-6.874.476 0 1.552 4.064 2.235 10.352a.75.75 0 0 0 1.491-.162C35.251 4.29 34.182.25 32.356.25c-1.572 0-2.484 2.756-3.28 8.155a.75.75 0 1 0 1.485.219zM17.057 30.998C8.974 19.88 5.969 10.457 9.285 7.14c2.515-2.515 8.633-1.426 16.57 3.05a.75.75 0 1 0 .737-1.307C18.114 4.104 11.396 2.908 8.224 6.08c-4.08 4.08-.882 14.106 7.62 25.8a.75.75 0 1 0 1.213-.882zm11.712 13.514a117.322 117.322 0 0 1-7.115-7.67.75.75 0 0 0-1.144.968 118.821 118.821 0 0 0 7.205 7.769.75.75 0 0 0 1.054-1.067z"/></g></svg>
