<svg xmlns="http://www.w3.org/2000/svg" width="57" height="57" viewBox="0 0 57 57"><g fill="none" fill-rule="evenodd"><path fill="#8994C6" fill-rule="nonzero" d="M28.629 56.69C13.13 56.69.569 44.125.569 28.628.568 13.13 13.13.569 28.628.569c15.497 0 28.06 12.562 28.06 28.06 0 15.497-12.563 28.06-28.06 28.06zm0-1.5c14.669 0 26.56-11.892 26.56-26.561 0-14.67-11.891-26.56-26.56-26.56-14.67 0-26.56 11.89-26.56 26.56 0 14.669 11.89 26.56 26.56 26.56z"/><path fill="#8994C6" fill-rule="nonzero" d="M41.707 24.317c.557.453 1.09.932 1.596 1.44a.75.75 0 1 0 1.06-1.061 22.544 22.544 0 0 0-1.708-1.543.75.75 0 1 0-.948 1.164zm-27.754 1.44a20.757 20.757 0 0 1 22.734-4.455.75.75 0 0 0 .583-1.382 22.257 22.257 0 0 0-24.378 4.776.75.75 0 1 0 1.06 1.061zm21.063 5.652c.505.358.982.76 1.43 1.208a.75.75 0 1 0 1.06-1.063 12.8 12.8 0 0 0-1.62-1.368.75.75 0 1 0-.87 1.223zm-14.202 1.207a11.01 11.01 0 0 1 7.816-3.237.75.75 0 0 0 0-1.5 12.51 12.51 0 0 0-8.877 3.677.75.75 0 1 0 1.06 1.06z"/><path fill="#8994C6" d="M26.639 38.442a2.817 2.817 0 0 1 3.981 3.981 2.817 2.817 0 0 1-3.981-3.981"/><path fill="#3E396B" fill-rule="nonzero" d="M43.165 14.074L15.297 41.942a.75.75 0 1 0 1.06 1.06l27.869-27.868a.75.75 0 0 0-1.061-1.06z"/></g></svg>
