<svg xmlns="http://www.w3.org/2000/svg" width="69" height="67" viewBox="0 0 69 67"><g fill="none" fill-rule="evenodd"><path stroke="#3E396B" stroke-width="1.5" d="M19.603 55.798a.8.8 0 0 1-.801.797.8.8 0 0 1-.802-.797.8.8 0 0 1 .802-.798.8.8 0 0 1 .801.798zm0-15a.8.8 0 0 1-.801.797.8.8 0 0 1-.802-.797.8.8 0 0 1 .802-.798.8.8 0 0 1 .801.798z" stroke-linecap="round"/><path fill="#8994C6" fill-rule="nonzero" d="M56.135 27c0 3.896-9.113 7.225-21.693 7.225-12.58 0-21.692-3.329-21.692-7.225a.75.75 0 1 0-1.5 0c0 5.136 9.824 8.725 23.192 8.725 13.369 0 23.193-3.589 23.193-8.725a.75.75 0 1 0-1.5 0zm0 16c0 3.896-9.113 7.225-21.693 7.225-12.58 0-21.692-3.329-21.692-7.225a.75.75 0 1 0-1.5 0c0 5.136 9.824 8.725 23.192 8.725 13.369 0 23.193-3.589 23.193-8.725a.75.75 0 1 0-1.5 0z"/><path stroke="#3E396B" stroke-width="1.5" d="M19.603 25.798a.8.8 0 0 1-.801.797.8.8 0 0 1-.802-.797.8.8 0 0 1 .802-.798.8.8 0 0 1 .801.798z" stroke-linecap="round"/><path fill="#8994C6" fill-rule="nonzero" d="M56.135 12c0 3.896-9.113 7.225-21.693 7.225-12.58 0-21.692-3.329-21.692-7.225a.75.75 0 1 0-1.5 0c0 5.136 9.824 8.725 23.192 8.725 13.369 0 23.193-3.589 23.193-8.725a.75.75 0 1 0-1.5 0z"/><path fill="#8994C6" fill-rule="nonzero" d="M12.75 58.23c0 3.897 9.112 7.225 21.692 7.225s21.693-3.328 21.693-7.225V11.975c0-3.896-9.113-7.225-21.693-7.225-12.58 0-21.692 3.329-21.692 7.225V58.23zm-1.5 0V11.975c0-5.136 9.824-8.725 23.192-8.725 13.369 0 23.193 3.589 23.193 8.725V58.23c0 5.137-9.824 8.725-23.193 8.725-13.368 0-23.192-3.588-23.192-8.725zM66.596 21c0 1.864-2.84 3.761-7.762 4.88a.75.75 0 0 0 .332 1.462c5.541-1.259 8.93-3.523 8.93-6.342a.75.75 0 1 0-1.5 0zm.016 13c0 1.866-2.846 3.765-7.778 4.883a.75.75 0 1 0 .332 1.463c5.55-1.259 8.946-3.524 8.946-6.346a.75.75 0 1 0-1.5 0zm0-26c0 1.866-2.846 3.765-7.778 4.883a.75.75 0 1 0 .332 1.463c5.55-1.259 8.946-3.524 8.946-6.346a.75.75 0 1 0-1.5 0z"/><path fill="#8994C6" fill-rule="nonzero" d="M44.07 2.98c1.62-.152 3.33-.23 5.108-.23 10.418 0 17.952 2.752 17.952 5.896v38.546c0 1.88-2.864 3.83-7.743 4.94a.75.75 0 1 0 .333 1.463c5.493-1.25 8.91-3.576 8.91-6.403V8.646c0-4.384-8.246-7.396-19.452-7.396-1.824 0-3.58.08-5.248.236a.75.75 0 0 0 .14 1.493zM.3 9.267c.858 2.248 4.013 4.035 8.712 5.1a.75.75 0 1 0 .332-1.463C5.09 11.941 2.329 10.377 1.7 8.732a.75.75 0 0 0-1.402.536z"/><path fill="#8994C6" fill-rule="nonzero" d="M24.765.486A54.394 54.394 0 0 0 19.61.25C8.423.25.25 3.257.25 7.646v38.546c0 2.837 3.357 5.16 8.817 6.403a.75.75 0 0 0 .333-1.462c-4.848-1.105-7.65-3.043-7.65-4.941V7.646c0-3.152 7.458-5.896 17.86-5.896 1.755 0 3.372.075 5.015.23a.75.75 0 0 0 .14-1.494z"/><path fill="#8994C6" fill-rule="nonzero" d="M.3 22.267c.857 2.247 4.005 4.033 8.696 5.098a.75.75 0 0 0 .333-1.462c-4.247-.965-7.001-2.527-7.628-4.17a.75.75 0 1 0-1.402.534zm0 13c.859 2.25 4.013 4.036 8.712 5.101a.75.75 0 1 0 .332-1.463c-4.254-.964-7.015-2.528-7.643-4.173a.75.75 0 1 0-1.402.536z"/></g></svg>
