<svg xmlns="http://www.w3.org/2000/svg" width="72" height="69" viewBox="0 0 72 69"><g fill="none"><path fill="#8994C6" d="M34.4 66.584a52.972 52.972 0 0 1-3.463-1.935 61.715 61.715 0 0 1-10.528-8.037C14.97 51.436 10.71 45.414 8.075 38.51a.75.75 0 1 0-1.402.535c2.723 7.128 7.11 13.332 12.702 18.654a63.203 63.203 0 0 0 10.784 8.233 54.464 54.464 0 0 0 3.561 1.99 35.381 35.381 0 0 0 1.373.659l.299.13.298-.13c.067-.03.19-.085.368-.168.29-.136.627-.3 1.005-.492a54.464 54.464 0 0 0 3.561-1.99A63.203 63.203 0 0 0 51.41 57.7c4.533-4.315 8.292-9.233 11.013-14.778a.75.75 0 0 0-1.346-.66c-2.639 5.375-6.29 10.152-10.701 14.351a61.715 61.715 0 0 1-10.529 8.037 52.972 52.972 0 0 1-3.462 1.935c-.363.184-.686.341-.962.47-.337-.129-.66-.286-1.023-.47zM5.141 10.77l30.25-8.989 30.25 8.989v11.547c0 4.278-.558 8.351-1.63 12.225a.75.75 0 1 0 1.446.4c1.108-4.003 1.684-8.211 1.684-12.625V9.652L35.392.218 3.642 9.652v12.666c0 3.488.36 6.849 1.058 10.083a.75.75 0 1 0 1.466-.316 46.144 46.144 0 0 1-1.024-9.767V10.77z"/><path fill="#8994C6" d="M10.176 14.855l24.95-7.415 24.952 7.415v7.534c0 4.355-.663 8.475-1.93 12.367a.75.75 0 1 0 1.426.464c1.315-4.04 2.004-8.317 2.004-12.831v-8.653l-26.451-7.86-26.451 7.86v8.653c0 3.168.33 6.242.991 9.215a.75.75 0 0 0 1.464-.325 40.888 40.888 0 0 1-.955-8.89v-7.534zm13.356 37.692c-4.909-4.733-8.478-9.953-10.684-15.618a.75.75 0 1 0-1.398.544c2.288 5.874 5.98 11.275 11.041 16.154a57.31 57.31 0 0 0 12.282 9.014l.358.195.358-.195c8.694-4.724 16.933-11.973 21.866-21.976a.75.75 0 1 0-1.345-.663c-4.705 9.54-12.564 16.53-20.878 21.125a55.867 55.867 0 0 1-11.6-8.58z"/><path fill="#3E396B" d="M40.825 28.716c-.088-.582-.18-1.193-.296-1.99l-.3-2.037c-1.582-10.734-2.339-13.988-4.334-13.988-1.609 0-1.97 1.504-2.443 6.636-.038.406-.168 1.866-.18 1.997-.076.83-.138 1.49-.206 2.14a72.606 72.606 0 0 1-.589 4.51c-.877 5.27-2.346 9.087-4.736 11.442-1.096 1.08-1.545.915-5.893-1.703-2.772-1.67-4.868-2.473-7.35-2.473-.261 0-.524.006-.789.017-2.785.122-5.744.86-8.712 2.014a38.589 38.589 0 0 0-3.151 1.388 30.186 30.186 0 0 0-1.22.64l-.65.375.748 1.3.65-.374a28.695 28.695 0 0 1 1.138-.597c.917-.454 1.936-.91 3.029-1.334 2.827-1.099 5.635-1.8 8.234-1.913.243-.01.484-.016.722-.016 2.149 0 4.018.717 6.577 2.258.236.142 1.62.997 2.002 1.222.752.443 1.341.743 1.902.948 1.482.545 2.74.376 3.816-.684 2.668-2.629 4.238-6.709 5.163-12.264a74.05 74.05 0 0 0 .601-4.601c.068-.658.132-1.323.207-2.16l.18-1.994c.196-2.116.347-3.304.558-4.182.192-.802.378-1.092.392-1.092.605 0 1.622 4.373 2.85 12.707.063.42.272 1.85.3 2.036.117.8.208 1.412.296 1.996.895 5.918 1.483 8.599 2.354 9.532.907.972 1.799.382 2.65-.97.261-.414.532-.908.918-1.656l.24-.468.245-.48c.201-.392.355-.689.508-.978 1.488-2.801 2.664-4.178 3.752-4.178.986 0 1.452.553 2.146 2.37.059.153.3.8.365.97.153.4.285.727.425 1.045.97 2.205 2.256 3.669 4.403 4.53 1.22.488 2.584.794 4.064.94 2.381.233 4.914.046 7.388-.407.603-.11 1.156-.228 1.647-.347.298-.072.51-.129.628-.162l.72-.208-.414-1.441-.721.207c-.097.028-.29.08-.565.146-.465.112-.99.225-1.565.33-2.348.43-4.748.607-6.971.389-1.348-.133-2.574-.408-3.653-.84-1.735-.695-2.762-1.865-3.588-3.742a20.594 20.594 0 0 1-.396-.975l-.365-.97c-.897-2.346-1.73-3.335-3.548-3.335-1.902 0-3.31 1.647-5.076 4.975-.158.296-.315.599-.519.998l-.246.481-.237.463c-.367.711-.622 1.175-.854 1.543-.16.256-.301.446-.413.57-.512-.86-1.095-3.637-1.838-8.556z"/></g></svg>
