<?xml version="1.0" encoding="iso-8859-1"?>
<!-- Generator: Adobe Illustrator 19.0.0, SVG Export Plug-In . SVG Version: 6.00 Build 0)  -->
<svg xmlns="http://www.w3.org/2000/svg" xmlns:xlink="http://www.w3.org/1999/xlink" version="1.1" id="Capa_1" x="0px" y="0px" viewBox="0 0 512 512" style="enable-background:new 0 0 512 512;" xml:space="preserve" width="512px" height="512px">
<g>
	<g>
		<path d="M394.828,285.426l-43.455-15.433c-0.339-1.203-0.98-2.333-1.913-3.265l-24.048-24.048    c-1.508-1.509-3.593-2.301-5.718-2.185c-0.021,0.001-0.041,0.005-0.062,0.007v-20.487c11.493-12.144,19.561-27.563,22.634-44.693    h9.907c12.976,0,23.532-10.557,23.532-23.532v-24.049c0-12.976-10.557-23.532-23.532-23.532h-0.516V74.096    c0-20.196-10.23-39.045-28.806-53.075C304.903,7.465,281.155,0,255.98,0c-25.175,0-48.923,7.465-66.871,21.021    c-18.576,14.03-28.807,32.879-28.807,53.075v30.114h-0.516c-12.976,0-23.532,10.557-23.532,23.532v24.049    c0,12.976,10.557,23.532,23.532,23.532h9.907c3.076,17.15,11.158,32.584,22.673,44.735v20.448    c-0.034-0.002-0.067-0.009-0.102-0.011c-2.126-0.116-4.209,0.677-5.718,2.185L162.5,266.729c-0.936,0.936-1.577,2.071-1.916,3.28    l-43.413,15.417c-23.078,8.196-37.925,30.145-36.946,54.616L86.824,504.8c0.162,4.037,3.485,7.2,7.489,7.2    c0.102,0,0.204-0.002,0.306-0.006c4.139-0.166,7.359-3.655,7.194-7.794l-6.599-164.758c-0.206-5.147,0.552-10.139,2.131-14.784    l27.019,27.02c7.668,7.667,11.891,17.862,11.891,28.706V504.5c0,4.142,3.358,7.5,7.5,7.5c4.142,0,7.5-3.358,7.5-7.5V380.383    c0-14.851-5.783-28.812-16.284-39.313l-29.886-29.886c4.479-5.151,10.302-9.207,17.107-11.624l44.169-15.686l25.912,41.46    c3.482,5.571,9.183,9.457,15.641,10.661c6.458,1.203,13.177-0.366,18.434-4.308l14.29-10.717l3.228,4.034    c2.96,3.701,7.376,5.823,12.116,5.823c4.74,0,9.156-2.123,12.116-5.823l3.228-4.035l14.289,10.717    c4.097,3.072,9.082,4.704,14.14,4.704c1.432,0,2.869-0.131,4.293-0.396c6.458-1.204,12.159-5.09,15.641-10.661l25.92-41.472    l44.201,15.698c6.805,2.417,12.627,6.472,17.107,11.624l-29.886,29.886c-10.501,10.5-16.284,24.462-16.284,39.313V504.5    c0,4.142,3.358,7.5,7.5,7.5c4.142,0,7.5-3.358,7.5-7.5V380.383c0-10.844,4.223-21.039,11.891-28.706l27.019-27.02    c1.579,4.645,2.337,9.637,2.131,14.784l-6.6,164.759c-0.166,4.139,3.055,7.628,7.194,7.794c0.103,0.004,0.204,0.006,0.306,0.006    c4.003,0,7.327-3.164,7.489-7.2l6.599-164.758C432.754,315.571,417.907,293.623,394.828,285.426z M343.642,119.21h8.532    c4.704-0.001,8.532,3.827,8.532,8.532v24.049c0,4.705-3.828,8.532-8.532,8.532h-8.532V119.21z M168.319,160.323h-8.532    c-4.705,0-8.532-3.828-8.532-8.532v-24.049c0-4.705,3.828-8.532,8.532-8.532h8.532V160.323z M183.319,159.808v-40.599h0h3.105    c6.381,0,12.036-3.828,14.406-9.753c1.539-3.846-0.332-8.21-4.178-9.749c-3.847-1.541-8.211,0.332-9.749,4.178    c-0.079,0.197-0.267,0.324-0.479,0.324h-11.121V74.096C175.303,41.51,211.495,15,255.98,15c44.485,0,80.677,26.51,80.677,59.096    v30.114h-11.121c-0.212,0-0.4-0.127-0.479-0.324l-9.985-24.964c-3.595-8.986-12.171-14.792-21.849-14.792h-74.485    c-8.313,0-16.089,4.452-20.294,11.619c-2.096,3.572-0.899,8.168,2.673,10.264c3.571,2.095,8.167,0.899,10.264-2.673    c1.523-2.597,4.343-4.21,7.357-4.21h74.485c3.509,0,6.619,2.105,7.922,5.363l9.985,24.964c2.37,5.925,8.025,9.753,14.406,9.753    h3.105v32.581c0,22.006-33.275,40.597-72.661,40.597c-4.142,0-7.5,3.358-7.5,7.5c0,4.142,3.358,7.5,7.5,7.5    c27.128,0,50.995-7.448,66.954-19.354c-11.039,26.086-36.894,44.435-66.954,44.435    C215.915,232.469,183.319,199.873,183.319,159.808z M217.347,319.688c-1.934,1.45-4.307,2.003-6.684,1.562    c-2.376-0.443-4.39-1.816-5.671-3.866l-27.667-44.268l13.904-13.904l40.033,50.041L217.347,319.688z M256.383,315.636    c-0.046,0.058-0.155,0.193-0.403,0.193c-0.248,0-0.356-0.136-0.403-0.193l-48.21-60.262v-22.657    c13.921,9.313,30.643,14.751,48.613,14.751c17.987,0,34.723-5.448,48.652-14.777v22.633L256.383,315.636z M306.968,317.385    c-1.281,2.05-3.295,3.422-5.671,3.866c-2.377,0.444-4.75-0.112-6.684-1.562l-13.914-10.436l40.032-50.04l13.904,13.904    L306.968,317.385z" fill="#FFFFFF"/>
	</g>
</g>
<g>
	<g>
		<path d="M223.916,400.807h-48.097c-4.142,0-7.5,3.358-7.5,7.5c0,4.142,3.358,7.5,7.5,7.5h48.097c4.142,0,7.5-3.358,7.5-7.5    C231.416,404.165,228.058,400.807,223.916,400.807z" fill="#FFFFFF"/>
	</g>
</g>
<g>
</g>
<g>
</g>
<g>
</g>
<g>
</g>
<g>
</g>
<g>
</g>
<g>
</g>
<g>
</g>
<g>
</g>
<g>
</g>
<g>
</g>
<g>
</g>
<g>
</g>
<g>
</g>
<g>
</g>
</svg>
