<?xml version="1.0" encoding="UTF-8" standalone="no"?>
<svg width="91px" height="91px" viewBox="0 0 91 91" version="1.1" xmlns="http://www.w3.org/2000/svg" xmlns:xlink="http://www.w3.org/1999/xlink">
    <!-- Generator: Sketch 3.8.2 (29753) - http://www.bohemiancoding.com/sketch -->
    <title>Group 94</title>
    <desc>Created with Sketch.</desc>
    <defs></defs>
    <g id="Page-1" stroke="none" stroke-width="1" fill="none" fill-rule="evenodd">
        <g id="enterprise-v1-copy-3" transform="translate(-568.000000, -1119.000000)">
            <g id="Group-62" transform="translate(220.000000, 1118.000000)">
                <g id="Group-3" transform="translate(32.000000, 0.000000)">
                    <g id="Unlimited-" transform="translate(274.000000, 1.000000)">
                        <g id="Group-94" transform="translate(42.000000, 0.000000)">
                            <circle id="Oval-1221" fill="#2DDE98" cx="45.6301653" cy="45.3606557" r="45"></circle>
                            <g id="Group-89" transform="translate(18.570248, 35.000000)" stroke="#FFFFFF" stroke-width="2">
                                <path d="M1.11022302e-16,11.1110053 C1.11022302e-16,11.1110053 6.18255447e-13,-4.90339859e-10 12.0523197,0 C24.1046394,4.90339859e-10 28.7580318,22.0000003 41.3790161,22 C54.0000004,21.9999997 54,12.1810732 54,11.0032429" id="Path-5441"></path>
                                <path d="M2.22044605e-16,11.1110053 C2.22044605e-16,11.1110053 6.18366469e-13,-4.90339859e-10 12.0523197,0 C24.1046394,4.90339859e-10 28.7580318,22.0000003 41.3790161,22 C54.0000004,21.9999997 54,12.015337 54,11.0032429" id="Path-5441-Copy" transform="translate(27.000000, 11.000000) scale(1, -1) translate(-27.000000, -11.000000) "></path>
                            </g>
                        </g>
                    </g>
                </g>
            </g>
        </g>
    </g>
</svg>