<?xml version="1.0" encoding="iso-8859-1"?>
<!-- Generator: Adobe Illustrator 19.0.0, SVG Export Plug-In . SVG Version: 6.00 Build 0)  -->
<svg xmlns="http://www.w3.org/2000/svg" xmlns:xlink="http://www.w3.org/1999/xlink" version="1.1" id="Capa_1" x="0px" y="0px" viewBox="0 0 512.001 512.001" style="enable-background:new 0 0 512.001 512.001;" xml:space="preserve" width="512px" height="512px">
<g>
	<g>
		<path d="M267.322,347.667l-54.176-24.842c24.448-7.978,55.941-17.227,56.307-17.334c2.123-0.623,3.855-2.163,4.747-4.187    c0.892-2.024,0.837-4.352-0.136-6.338c-0.138-0.281-13.798-28.867-13.798-91.42v-29.153c0-56.379-45.868-102.248-102.248-102.248    S55.77,118.013,55.77,174.393v29.153c0,62.553-13.66,91.139-13.784,91.394c-0.995,1.99-1.055,4.318-0.165,6.357    c0.891,2.038,2.64,3.576,4.776,4.198c0.366,0.106,31.913,9.304,56.182,17.262l-54.323,24.91    c-20.719,9.501-33.708,31.17-32.32,53.921l6.305,103.368c0.243,3.979,3.545,7.044,7.479,7.044c0.153,0,0.308-0.005,0.463-0.014    c4.134-0.252,7.282-3.809,7.029-7.943l-6.305-103.368c-0.575-9.438,2.24-18.618,7.551-26.062l20.445,24.534    c6.59,7.907,10.219,17.931,10.219,28.224V504.5c0,4.142,3.358,7.5,7.5,7.5c4.142,0,7.5-3.358,7.5-7.5v-77.128    c0-13.795-4.864-27.229-13.695-37.827l-21.132-25.359c1.651-1.08,3.39-2.048,5.213-2.884l35.933-16.477    c10.242,27.934,37.015,46.934,67.249,46.934c30.33,0,57.014-18.972,67.246-46.935l35.936,16.478    c1.823,0.836,3.562,1.804,5.213,2.884l-21.132,25.359c-8.832,10.598-13.695,24.031-13.695,37.827V504.5c0,4.142,3.358,7.5,7.5,7.5    c4.142,0,7.5-3.358,7.5-7.5v-77.128c0-10.293,3.629-20.317,10.219-28.224l20.445-24.534c5.311,7.444,8.126,16.625,7.551,26.062    l-6.305,103.368c-0.252,4.134,2.895,7.69,7.029,7.943c0.155,0.009,0.31,0.014,0.463,0.014c3.934,0,7.236-3.065,7.479-7.044    l6.305-103.368C301.03,378.837,288.042,357.168,267.322,347.667z M70.771,211.573c0-3.751,2.52-7.131,5.738-7.696    c2.708-0.478,5.303,0.519,6.948,2.664c1.393,1.815,3.25,3.112,5.37,3.753c3.104,0.938,6.529,0.387,9.162-1.471    c6.037-4.261,11.153-9.666,15.209-16.064c2.217-3.499,1.179-8.132-2.32-10.35c-3.499-2.216-8.132-1.178-10.35,2.32    c-2.291,3.615-5.028,6.793-8.166,9.484c-4.983-4.358-11.722-6.29-18.446-5.11c-1.083,0.19-2.127,0.48-3.145,0.825v-15.535    c0-48.109,39.139-87.248,87.248-87.248c48.108,0,87.248,39.139,87.248,87.248v29.153c0,47.73,7.571,76.789,12.092,89.886    c-12.394,3.698-36.911,11.105-55.121,17.2v-18.137c12.613-8.328,22.895-20.205,29.255-34.611    c3.783-8.57,5.912-18.092,6.154-27.536c0.802-31.278-25.827-39.139-54.02-47.462c-23.327-6.887-49.766-14.692-71.396-35.733    c-2.969-2.888-7.717-2.822-10.605,0.146c-2.888,2.969-2.823,7.717,0.146,10.605c24.288,23.625,53.853,32.354,77.608,39.367    c29.567,8.729,43.757,13.765,43.272,32.691c-0.192,7.506-1.88,15.066-4.881,21.863c-10.452,23.673-33.906,38.969-59.752,38.969    c-31.521,0-58.529-22.494-64.222-53.486c-1.347-7.337-8.132-12.674-15.47-12.126c-0.69,0.049-1.403-0.01-2.122-0.18    c-3.098-0.733-5.434-4.102-5.434-7.835V211.573z M58.683,293.42c3.29-9.534,8.187-27.519,10.614-54.977    c1.107,0.481,2.259,0.873,3.453,1.156c2.094,0.496,4.22,0.687,6.321,0.566c4.081,21.993,16.904,40.479,34.47,52.174v18.189    C95.497,304.446,71.066,297.093,58.683,293.42z M157.889,376.759c-24.303,0-45.774-15.525-53.559-38.211l10.487-4.809    c8.337-3.822,13.724-12.219,13.724-21.391v-12.167c9.17,3.621,19.122,5.612,29.478,5.612c10.186,0,20.066-1.941,29.219-5.524    v12.078c0,9.172,5.387,17.568,13.724,21.391l10.494,4.812C203.677,361.262,182.271,376.759,157.889,376.759z" fill="#FFFFFF"/>
	</g>
</g>
<g>
	<g>
		<path d="M490.99,40.518L378.764,0.437c-1.631-0.583-3.414-0.583-5.045,0L261.494,40.518c-2.985,1.066-4.978,3.894-4.978,7.063    c0,1.521,0.164,37.766,14.396,81.481c18.99,58.327,54.252,101.769,101.975,125.63c1.056,0.528,2.205,0.792,3.354,0.792    c1.149,0,2.298-0.264,3.354-0.792c47.723-23.861,82.985-67.303,101.975-125.63c14.233-43.716,14.397-79.96,14.397-81.481    C495.968,44.411,493.975,41.584,490.99,40.518z M467.308,124.418c-7.896,24.252-18.738,45.829-32.224,64.131    c-15.975,21.68-35.757,38.824-58.843,51.003c-23.011-12.14-42.741-29.213-58.688-50.793    c-13.478-18.239-24.324-39.742-32.239-63.914c-10.539-32.184-13.03-60.69-13.618-72.044L376.24,15.464l104.55,37.339    C480.216,64.086,477.76,92.317,467.308,124.418z" fill="#FFFFFF"/>
	</g>
</g>
<g>
	<g>
		<path d="M456.969,62.412l-11.358-4.057c-3.899-1.393-8.193,0.639-9.585,4.541c-1.393,3.9,0.64,8.192,4.541,9.585l5.524,1.973    c-10.78,65.315-40.038,100.687-62.346,118.757V52.191l29.314,10.469c3.901,1.393,8.193-0.64,9.585-4.541    c1.393-3.901-0.64-8.192-4.541-9.585l-39.285-14.03c-0.496-0.181-1.011-0.311-1.538-0.385h-0.001    c-0.002,0-0.004-0.001-0.006-0.001c-0.423-0.059-0.845-0.081-1.263-0.068l-0.006,0.001c-0.003,0-0.006,0-0.01,0    c-0.004,0-0.007,0-0.01,0c-0.003,0-0.007,0-0.01,0c-0.004,0-0.007,0-0.01,0c-0.005,0.003-0.006,0-0.01,0    c-0.122,0.005-0.244,0.013-0.366,0.023c-0.002,0-0.006,0-0.008,0c-0.006,0.001-0.006,0.001-0.009,0.001s-0.006,0-0.008,0.001    c-0.648,0.059-1.282,0.203-1.886,0.423l-78.239,27.943c-3.35,1.196-5.398,4.581-4.905,8.103    c2.423,17.305,7.869,43.52,20.052,70.13c14.675,32.055,35.404,56.799,61.61,73.546c1.231,0.787,2.635,1.18,4.039,1.18    c1.406,0,2.813-0.395,4.046-1.185c26.057-16.693,46.719-41.43,61.412-73.525c12.177-26.599,17.694-52.83,20.178-70.151    C462.376,67.01,460.327,63.611,456.969,62.412z M368.742,193.261c-22.447-18.095-51.882-53.507-62.446-118.768l62.446-22.302    V193.261z" fill="#FFFFFF"/>
	</g>
</g>
<g>
</g>
<g>
</g>
<g>
</g>
<g>
</g>
<g>
</g>
<g>
</g>
<g>
</g>
<g>
</g>
<g>
</g>
<g>
</g>
<g>
</g>
<g>
</g>
<g>
</g>
<g>
</g>
<g>
</g>
</svg>
